<svg width="290" height="82" viewBox="0 0 290 82" fill="none" xmlns="http://www.w3.org/2000/svg">
<path fill-rule="evenodd" clip-rule="evenodd" d="M105.704 30.96C104.844 32.35 103.624 33.43 102.044 34.2H102.054C101.524 34.46 100.954 34.66 100.374 34.83L107.664 46.96H101.544L94.8137 35.36H89.3237V46.96H83.9937V17H96.6937C98.7537 17 100.554 17.3699 102.114 18.1299C103.674 18.8899 104.874 19.96 105.724 21.34C106.574 22.72 106.994 24.2999 106.994 26.1299C106.994 27.9599 106.564 29.57 105.704 30.96ZM96.3837 30.86C97.4237 30.86 98.3337 30.67 99.0937 30.28V30.29C99.8637 29.9 100.454 29.36 100.874 28.65C101.294 27.95 101.504 27.1 101.504 26.16C101.504 25.22 101.294 24.4 100.874 23.7C100.444 23 99.8537 22.46 99.0937 22.08C98.3237 21.7 97.4237 21.5099 96.3837 21.5099H89.3237V30.86H96.3837ZM120.944 24.52C123.104 24.52 125.024 25.01 126.704 25.98L126.684 25.97C128.374 26.95 129.684 28.3 130.614 30.03C131.544 31.76 132.014 33.74 132.014 35.97V37.19H114.724C114.824 38.2 115.074 39.13 115.504 39.96C116.044 41.01 116.784 41.83 117.734 42.41C118.684 43 119.754 43.29 120.954 43.29C122.014 43.29 122.964 43.08 123.804 42.67C124.644 42.26 125.344 41.68 125.904 40.94H131.404C130.884 42.3 130.134 43.46 129.154 44.43C128.174 45.4 126.984 46.15 125.584 46.68C124.194 47.21 122.644 47.47 120.944 47.47C118.794 47.47 116.854 46.97 115.134 45.99C113.414 45 112.054 43.6299 111.064 41.8799C110.074 40.1199 109.574 38.1 109.574 35.95C109.574 33.8 110.074 31.85 111.074 30.11C112.074 28.37 113.444 26.9999 115.174 26.0099C116.914 25.0199 118.784 24.52 120.944 24.52ZM114.825 33.8H126.844C126.724 33.13 126.534 32.5 126.254 31.91C125.754 30.85 125.044 30.02 124.124 29.42C123.204 28.82 122.144 28.52 120.944 28.52C119.744 28.52 118.674 28.81 117.724 29.39C116.774 29.97 116.034 30.77 115.494 31.79C115.165 32.4071 114.956 33.0837 114.825 33.8ZM148.894 29.64C150.344 29.96 151.644 30.54 152.784 31.37L152.744 31.4C153.894 32.23 154.774 33.24 155.414 34.44C156.044 35.64 156.364 36.9499 156.364 38.3799C156.364 40.1099 155.904 41.67 154.984 43.05C154.064 44.43 152.774 45.52 151.114 46.31C149.454 47.1 147.574 47.5 145.434 47.5C143.294 47.5 141.394 47.11 139.744 46.33C138.094 45.56 136.794 44.4699 135.864 43.0699C134.934 41.6699 134.454 40.06 134.444 38.23H139.794C139.794 39.16 140.034 39.97 140.524 40.68C141.004 41.39 141.684 41.94 142.544 42.34C143.414 42.74 144.444 42.94 145.534 42.94C146.624 42.94 147.574 42.75 148.394 42.39C149.214 42.03 149.844 41.52 150.294 40.87C150.744 40.22 150.964 39.4699 150.964 38.6299C150.964 37.5899 150.654 36.72 150.024 36.05C149.394 35.38 148.534 34.8999 147.434 34.6299L142.214 33.45C140.804 33.12 139.574 32.5799 138.514 31.8199C137.464 31.0699 136.634 30.13 136.054 29.02C135.464 27.9 135.174 26.65 135.174 25.27C135.174 23.58 135.614 22.08 136.484 20.75C137.354 19.43 138.574 18.3899 140.124 17.6299C141.684 16.8799 143.404 16.5 145.414 16.5C147.424 16.5 149.214 16.86 150.784 17.6C152.354 18.33 153.574 19.36 154.444 20.66C155.314 21.96 155.764 23.46 155.774 25.14H150.424C150.424 24.35 150.214 23.65 149.814 23.02C149.414 22.39 148.834 21.9 148.084 21.56C147.334 21.22 146.454 21.05 145.484 21.05C144.514 21.05 143.654 21.21 142.914 21.54C142.174 21.87 141.594 22.33 141.184 22.93C140.774 23.53 140.564 24.23 140.564 25.03C140.564 25.92 140.864 26.66 141.444 27.24C142.034 27.81 142.834 28.2399 143.844 28.5099L148.894 29.64ZM172.244 24.52C173.814 24.52 175.194 24.87 176.374 25.55L176.384 25.5699C177.564 26.2499 178.484 27.24 179.144 28.54C179.794 29.83 180.124 31.38 180.124 33.18V46.96H175.094V33.95C175.094 32.89 174.914 31.99 174.554 31.25C174.194 30.51 173.684 29.94 173.014 29.55C172.344 29.16 171.544 28.96 170.614 28.96C169.624 28.96 168.734 29.1799 167.964 29.6299C167.194 30.0799 166.594 30.7 166.174 31.5C165.754 32.3 165.544 33.2199 165.544 34.2599V46.95H160.494V16.99H165.434V23.77L165.374 27.81V28.3799C166.014 27.2599 166.834 26.36 167.874 25.7C169.124 24.91 170.574 24.52 172.244 24.52ZM198.704 25.72C199.814 26.38 200.724 27.26 201.434 28.35V25.04H206.394V46.96H201.434V43.65C200.724 44.74 199.814 45.63 198.704 46.28C197.344 47.08 195.754 47.48 193.944 47.48C192.004 47.48 190.264 46.9899 188.724 46.0099C187.184 45.0299 185.974 43.67 185.104 41.92C184.234 40.17 183.804 38.2 183.804 36C183.804 33.8 184.234 31.83 185.104 30.08C185.974 28.33 187.184 26.97 188.714 25.99C190.244 25.01 191.994 24.52 193.944 24.52C195.754 24.52 197.344 24.92 198.704 25.72ZM198.424 42.08C199.364 41.49 200.094 40.67 200.624 39.62C201.154 38.57 201.414 37.36 201.414 35.99C201.414 34.62 201.154 33.41 200.624 32.36C200.104 31.31 199.364 30.49 198.424 29.9C197.484 29.31 196.374 29.0099 195.174 29.0099C193.974 29.0099 192.904 29.31 191.964 29.9C191.024 30.49 190.294 31.31 189.774 32.36C189.254 33.41 188.994 34.62 188.994 35.99C188.994 37.36 189.254 38.5699 189.774 39.6299C190.294 40.6899 191.024 41.51 191.964 42.09C192.904 42.68 193.954 42.97 195.174 42.97C196.394 42.97 197.484 42.67 198.424 42.08ZM216.394 28.36C216.964 27.43 217.664 26.67 218.494 26.1L218.484 26.11C219.654 25.3 221.024 24.9 222.574 24.9H223.384V29.99H221.974C220.854 29.99 219.864 30.2 219.034 30.61C218.194 31.03 217.554 31.62 217.104 32.39C216.654 33.16 216.434 34.0699 216.434 35.1299V46.96H211.384V25.04H216.394V28.36ZM238.784 24.52C240.734 24.52 242.484 25.01 244.014 25.99V25.96C245.554 26.94 246.754 28.3 247.624 30.05C248.494 31.8 248.934 33.77 248.934 35.97C248.934 38.17 248.494 40.14 247.624 41.89C246.754 43.64 245.544 45 244.004 45.98C242.464 46.96 240.724 47.45 238.784 47.45C236.974 47.45 235.384 47.05 234.024 46.25C232.914 45.61 232.024 44.73 231.314 43.65V53.79H226.264V25.03H231.204V28.5C231.934 27.34 232.864 26.4 234.034 25.72C235.404 24.92 236.984 24.52 238.784 24.52ZM240.774 42.08C241.714 41.49 242.444 40.67 242.964 39.62C243.484 38.57 243.744 37.36 243.744 35.99C243.744 34.62 243.484 33.41 242.964 32.36C242.444 31.31 241.714 30.49 240.774 29.9C239.834 29.31 238.784 29.0099 237.564 29.0099C236.344 29.0099 235.254 29.31 234.314 29.9C233.364 30.49 232.634 31.31 232.104 32.36C231.574 33.41 231.314 34.62 231.314 35.99C231.314 37.36 231.574 38.5699 232.104 39.6299C232.634 40.6899 233.374 41.51 234.314 42.09C235.254 42.68 236.364 42.97 237.564 42.97C238.764 42.97 239.834 42.67 240.774 42.08ZM262.824 24.52C264.984 24.52 266.904 25.01 268.584 25.98L268.564 25.97C270.254 26.95 271.564 28.3 272.494 30.03C273.424 31.76 273.894 33.74 273.894 35.97V37.19H256.604C256.704 38.2 256.954 39.13 257.384 39.96C257.924 41.01 258.664 41.83 259.614 42.41C260.564 43 261.634 43.29 262.834 43.29C263.894 43.29 264.844 43.08 265.684 42.67C266.534 42.26 267.224 41.68 267.784 40.94H273.284C272.764 42.3 272.014 43.46 271.034 44.43C270.054 45.4 268.864 46.15 267.464 46.68C266.074 47.21 264.524 47.47 262.824 47.47C260.674 47.47 258.734 46.98 257.014 45.99C255.294 45 253.934 43.6299 252.944 41.8799C251.954 40.1199 251.454 38.1 251.454 35.95C251.454 33.8 251.954 31.85 252.954 30.11C253.954 28.37 255.324 26.9999 257.054 26.0099C258.794 25.0199 260.664 24.52 262.824 24.52ZM256.705 33.8H268.724C268.604 33.13 268.414 32.5 268.134 31.91C267.634 30.85 266.924 30.02 266.004 29.42C265.084 28.82 264.024 28.52 262.824 28.52C261.624 28.52 260.554 28.81 259.604 29.39C258.654 29.97 257.914 30.77 257.374 31.79C257.045 32.4071 256.836 33.0837 256.705 33.8ZM284.694 26.1C285.864 25.29 287.224 24.89 288.784 24.89L288.774 24.9H289.584V29.99H288.174C287.054 29.99 286.074 30.19 285.234 30.61C284.394 31.03 283.754 31.62 283.304 32.39C282.854 33.16 282.634 34.0699 282.634 35.1299V46.96H277.584V25.04H282.594V28.36C283.164 27.43 283.864 26.67 284.694 26.1ZM90.2229 67.5157C91.0919 67.5157 91.881 67.7554 92.5802 68.2149C93.2794 68.6843 93.8287 69.3236 94.2283 70.1327C94.6278 70.9418 94.8276 71.8607 94.8276 72.8795C94.8276 73.8984 94.6278 74.8173 94.2283 75.6264C93.8287 76.4454 93.2794 77.0847 92.5802 77.5442C91.881 78.0136 91.0919 78.2434 90.2129 78.2434C89.3938 78.2434 88.6746 78.0636 88.0653 77.704C87.5859 77.4343 87.2263 77.0348 86.9167 76.5753V78.0037H84V63.9997H86.9266V69.1838C87.2363 68.7343 87.5959 68.3347 88.0753 68.0551C88.6846 67.6955 89.4038 67.5157 90.2229 67.5157ZM90.6723 75.2968C91.0419 75.067 91.3316 74.7374 91.5414 74.3179C91.7511 73.8984 91.851 73.4289 91.851 72.8795C91.851 72.3302 91.7511 71.8507 91.5414 71.4312C91.3316 71.0117 91.0419 70.682 90.6723 70.4523C90.3028 70.2226 89.8833 70.1027 89.3938 70.1027C88.9044 70.1027 88.4749 70.2226 88.1053 70.4523C87.7357 70.682 87.446 71.0117 87.2363 71.4312C87.0265 71.8507 86.9266 72.3202 86.9266 72.8695C86.9266 73.4189 87.0265 73.8984 87.2363 74.3179C87.446 74.7374 87.7357 75.067 88.1053 75.2968C88.4749 75.5265 88.9144 75.6464 89.3938 75.6464C89.8733 75.6464 90.3028 75.5265 90.6723 75.2968ZM97.8241 67.7554L100.181 74.1181H100.191L102.359 67.7554H105.296L101.04 78.6229C100.741 79.4021 100.301 80.0213 99.732 80.4908C99.1626 80.9603 98.4634 81.19 97.6444 81.19H95.8164V78.603H97.4546C97.6843 78.603 97.8741 78.553 98.0239 78.4531C98.1737 78.3533 98.3036 78.2034 98.4135 77.9937L98.7131 77.3844L94.8076 67.7554H97.8241ZM114.345 74.188C114.515 73.8784 114.595 73.5288 114.595 73.1392V63.9997H117.691V73.359C117.691 74.238 117.492 75.0271 117.082 75.7363C116.673 76.4454 116.113 76.9948 115.404 77.3944C114.695 77.7939 113.886 77.9937 112.997 77.9937H110.629V75.1469H112.587C112.987 75.1469 113.336 75.067 113.636 74.8972C113.946 74.7274 114.175 74.4977 114.345 74.188ZM129.588 72.2902H123.095V72.3002V75.3067H130.467V78.0037H120.079V63.9997H130.267V66.7066H123.095V69.6732H129.588V72.2902ZM135.741 66.7765H131.595H131.585V63.9997H142.962V66.7765H138.837V77.9937H135.741V66.7765ZM152.921 70.6721C153.211 70.752 153.48 70.8519 153.73 70.9817H153.74C154.309 71.2914 154.759 71.7109 155.078 72.2602C155.398 72.8096 155.558 73.4289 155.558 74.1181C155.558 74.8673 155.358 75.5365 154.949 76.1258C154.539 76.7151 153.97 77.1746 153.231 77.5042C152.491 77.8339 151.652 78.0037 150.714 78.0037H144.371V63.9997H150.594C151.483 63.9997 152.282 64.1595 152.981 64.4692C153.68 64.7788 154.219 65.2183 154.609 65.7777C154.999 66.337 155.188 66.9763 155.188 67.6855C155.188 68.3048 155.039 68.8541 154.749 69.3336C154.459 69.813 154.05 70.1926 153.54 70.4523C153.361 70.5466 153.155 70.6053 152.956 70.6621L152.921 70.6721ZM150.124 66.347H147.377V66.367V69.7931H150.124C150.504 69.7931 150.843 69.7132 151.133 69.5733C151.433 69.4335 151.652 69.2337 151.822 68.964C151.992 68.6943 152.072 68.3747 152.072 68.0351C152.072 67.6955 151.982 67.3958 151.822 67.1461C151.652 66.8864 151.423 66.6966 151.133 66.5568C150.843 66.4169 150.504 66.347 150.124 66.347ZM151.363 75.4366C151.682 75.2868 151.932 75.087 152.112 74.8173V74.8373C152.292 74.5676 152.382 74.2679 152.382 73.9084C152.382 73.5488 152.292 73.2291 152.112 72.9495C151.932 72.6698 151.672 72.45 151.353 72.3002C151.023 72.1504 150.654 72.0705 150.244 72.0705H147.377V75.6563H150.244C150.664 75.6563 151.043 75.5864 151.363 75.4366ZM167.904 70.7719C167.474 71.4412 166.875 71.9706 166.096 72.3401H166.086C165.946 72.4101 165.786 72.47 165.626 72.5299L168.823 78.0037H165.287L162.45 72.8995H160.432V78.0037H157.336V63.9997H163.469C164.478 63.9997 165.367 64.1795 166.136 64.5491C166.905 64.9187 167.494 65.4381 167.914 66.1073C168.333 66.7765 168.543 67.5357 168.543 68.4246C168.543 69.3136 168.333 70.1027 167.904 70.7719ZM164.348 70.1626C164.667 70.0028 164.917 69.7731 165.087 69.4834V69.4934C165.257 69.2037 165.347 68.8641 165.347 68.4646C165.347 68.0651 165.257 67.7254 165.087 67.4358C164.917 67.1461 164.667 66.9264 164.348 66.7665C164.028 66.6167 163.649 66.5368 163.219 66.5368H160.432V70.4024H163.219C163.649 70.4024 164.028 70.3225 164.348 70.1626ZM169.842 78.0037L174.846 63.9997H174.856H178.212L183.316 78.0037H180.23L179.171 74.9172H173.977L172.988 78.0037H169.842ZM176.294 67.6256L174.686 72.5699H178.392L176.674 67.6256L176.484 66.7266L176.294 67.6256ZM187.721 78.0037H184.525V63.9997H187.721V78.0037ZM193.155 63.9997L199.168 73.4689H199.178V63.9997H202.005V78.0037H198.958L192.965 68.5345V78.0037H190.138V63.9997H193.155ZM212.782 70.4323C213.332 70.8319 213.761 71.3213 214.061 71.9007V71.8807C214.37 72.47 214.52 73.1093 214.52 73.7985C214.52 74.6475 214.291 75.4066 213.841 76.0759C213.392 76.7451 212.762 77.2745 211.963 77.6541C211.154 78.0336 210.225 78.2234 209.196 78.2234C208.168 78.2234 207.249 78.0336 206.45 77.664C205.65 77.2945 205.021 76.7651 204.562 76.1058C204.102 75.4466 203.863 74.6675 203.853 73.7985H206.949C206.949 74.1581 207.049 74.4777 207.239 74.7574C207.428 75.0371 207.698 75.2468 208.048 75.3966C208.397 75.5465 208.797 75.6264 209.226 75.6264C209.656 75.6264 210.025 75.5565 210.345 75.4266C210.665 75.2968 210.904 75.107 211.084 74.8573C211.264 74.6075 211.354 74.3279 211.354 74.0182C211.354 73.6287 211.234 73.309 210.994 73.0493C210.755 72.7896 210.425 72.6098 210.015 72.51L207.498 71.9906C206.839 71.8507 206.26 71.601 205.76 71.2414C205.261 70.8818 204.871 70.4223 204.602 69.883C204.332 69.3336 204.192 68.7243 204.192 68.0551C204.192 67.216 204.412 66.4769 204.831 65.8276C205.261 65.1784 205.85 64.6689 206.609 64.2994C207.369 63.9298 208.228 63.75 209.206 63.75C210.185 63.75 211.064 63.9298 211.823 64.2794C212.583 64.629 213.182 65.1184 213.611 65.7477C214.041 66.367 214.271 67.0962 214.291 67.9052H211.194C211.194 67.6056 211.104 67.3359 210.944 67.0962C210.775 66.8564 210.545 66.6766 210.255 66.5468C209.966 66.407 209.616 66.347 209.236 66.347C208.857 66.347 208.517 66.4169 208.228 66.5368C207.938 66.6567 207.708 66.8365 207.548 67.0562C207.389 67.2859 207.309 67.5456 207.309 67.8453C207.309 68.1849 207.418 68.4546 207.638 68.6843C207.858 68.9141 208.158 69.0639 208.527 69.1538L210.904 69.6432C211.614 69.7731 212.233 70.0428 212.782 70.4323Z" fill="black"/>
<path d="M59.8748 0H25.7477C24.0896 0 22.5927 0.993115 21.9477 2.5206L6.14973 39.9415C5.93098 40.4596 5.82036 41.0171 5.82536 41.5796L5.97536 59.9082C5.99411 62.1731 7.83534 63.9994 10.1003 63.9994H27.7658C28.5714 63.9994 29.3589 63.7638 30.032 63.3213L62.1411 42.2127C63.3017 41.4502 63.9998 40.1546 63.9998 38.7659V4.12496C63.9998 1.84686 62.1529 0 59.8748 0Z" fill="url(#paint0_linear_943_1059)"/>
<path d="M14.9874 6H4.12496C1.84686 6 0 7.84686 0 10.125V22.6905C0 22.8905 0.0143749 23.0905 0.0437496 23.2886L5.49182 60.4732C5.78869 62.4988 7.52618 64.0001 9.57303 64.0001H24.9704C27.2491 64.0001 29.096 62.1526 29.0953 59.8738L29.091 41.3697C29.091 40.944 29.0247 40.5209 28.8953 40.1159L18.9167 8.8706C18.3704 7.16124 16.7817 6.00063 14.9874 6.00063V6Z" fill="url(#paint1_linear_943_1059)"/>
<path d="M16.4503 6H4.1917C1.88797 6 0.030488 7.88686 0.0673626 10.1906L0.000488281 20.9999C0.0192381 22.1811 0.786731 23.5305 1.6836 24.2992L39.842 57.0057C40.5895 57.6464 41.542 57.9989 42.5263 57.9989H53.8756C56.1537 57.9989 58.0005 56.152 58.0005 53.8739V42.8709C58.0005 41.6815 57.4868 40.5497 56.5918 39.7665L19.1666 7.02062C18.4147 6.3625 17.4497 6 16.4503 6Z" fill="#FDB60D"/>
<path d="M52.0002 12H12V51.9996H51.9996V12H52.0002Z" fill="black"/>
<path fill-rule="evenodd" clip-rule="evenodd" d="M17.0122 16.9937H23.454C24.5046 16.9937 25.4296 17.1868 26.2302 17.5724C27.0302 17.958 27.6465 18.5011 28.079 19.2018C28.5115 19.9024 28.7277 20.713 28.7277 21.6349C28.7277 22.5567 28.5077 23.3836 28.0683 24.0948C27.629 24.8061 27.0034 25.3561 26.1927 25.7454C25.9697 25.8525 25.7368 25.9449 25.4941 26.0225L29.0496 32.0004H25.6946L22.4596 26.3298H19.9384V31.9998H17.0122V16.9937ZM24.5528 23.6236C24.9209 23.4411 25.2046 23.1805 25.4046 22.8411C25.6046 22.5017 25.7046 22.1067 25.7046 21.6567C25.7046 21.2067 25.6046 20.8049 25.4046 20.4724C25.2046 20.1399 24.9203 19.883 24.5528 19.7005C24.1846 19.518 23.754 19.4274 23.2609 19.4274H19.9378V23.8973H23.2609C23.754 23.8973 24.1846 23.8055 24.5528 23.6236Z" fill="white"/>
<path d="M32.9998 43.9995H17V46.9995H32.9998V43.9995Z" fill="white"/>
<path fill-rule="evenodd" clip-rule="evenodd" d="M42.812 28.1735V26.2654L40.5993 26.2693L41.3572 22.7324L43.8838 22.728V20.7986L41.7708 20.8023L42.587 16.9937H40.4539L39.6369 20.806L36.442 20.8116L37.2601 16.9937H35.127L34.3081 20.8153L31.6858 20.8199V22.7492L33.8945 22.7454L33.1366 26.2823L30.6139 26.2867V28.1948L32.7276 28.1911L31.9114 31.9998H34.0445L34.8615 28.1874L38.0564 28.1818L37.2383 31.9998H39.3714L40.1903 28.1781L42.812 28.1735ZM35.2705 26.2786L38.4654 26.273L39.2233 22.7361L36.0284 22.7417L35.2705 26.2786Z" fill="white"/>
<defs>
<linearGradient id="paint0_linear_943_1059" x1="4.32412" y1="59.9325" x2="62.9198" y2="1.33686" gradientUnits="userSpaceOnUse">
<stop offset="0.29" stop-color="#FF45ED"/>
<stop offset="0.7" stop-color="#FF0A67"/>
</linearGradient>
<linearGradient id="paint1_linear_943_1059" x1="-0.390622" y1="7.67061" x2="24.3929" y2="61.1251" gradientUnits="userSpaceOnUse">
<stop offset="0.3" stop-color="#FDB60D"/>
<stop offset="0.54" stop-color="#FF45ED"/>
</linearGradient>
</defs>
</svg>
